<svg xmlns="http://www.w3.org/2000/svg" width="64.751" height="64.784" viewBox="0 0 64.751 64.784"><g transform="translate(-0.29 -0.28)"><path d="M38.637,82.83h-1.35a5.988,5.988,0,0,0-5.975-5.32H8.75a5.981,5.981,0,0,0-5.934,5.32H1.465A.675.675,0,0,0,.79,83.5v5.313a.675.675,0,0,0,.675.675H38.637a.675.675,0,0,0,.675-.675V83.491A.675.675,0,0,0,38.637,82.83ZM8.75,78.84H31.312a4.658,4.658,0,0,1,4.6,3.99H4.152a4.651,4.651,0,0,1,4.6-3.99Zm29.225,9.3H2.106v-3.99H37.975Z" transform="translate(0 -24.929)" fill="#fff" stroke="#fff" stroke-width="1"/><path d="M63.7,57.131,39.8,33.219A3.227,3.227,0,0,0,35.4,28.831l-2.815-2.815,1.195-1.188,3.976-3.983a2.4,2.4,0,0,0,.864.169,2.329,2.329,0,0,0,1.647-.675l1.965-1.971a2.316,2.316,0,0,0,0-3.288L28.617,1.455A2.322,2.322,0,0,0,26.984.78a2.3,2.3,0,0,0-1.641.675L23.365,3.433a2.329,2.329,0,0,0-.513,2.5L18.869,9.914,10.9,17.887l-3.983,3.97a2.316,2.316,0,0,0-2.5.513L2.443,24.355a2.322,2.322,0,0,0,0,3.281L16.06,41.253a2.322,2.322,0,0,0,3.288,0l1.965-1.971a2.309,2.309,0,0,0,.513-2.5l3.983-3.983L27,31.605l2.808,2.815a3.22,3.22,0,0,0,4.395,4.388L58.113,62.714a3.95,3.95,0,0,0,5.59-5.583ZM33.323,23.416,20.28,10.38,23.655,7,36.692,20.041ZM24.31,4.372l1.971-1.978a1.013,1.013,0,0,1,.675-.29,1,1,0,0,1,.675.29L41.3,16.01a.992.992,0,0,1,0,1.411l-1.965,1.971a1.006,1.006,0,0,1-1.411,0L24.31,5.783a.992.992,0,0,1,0-1.411ZM11.375,19.3,24.4,32.328,21.029,35.7,8,22.674Zm9,19.045L18.41,40.314a1.006,1.006,0,0,1-1.411,0L3.382,26.7a1,1,0,0,1,0-1.4l1.971-1.971a1,1,0,0,1,1.411,0l13.61,13.617a.986.986,0,0,1,0,1.4Zm4.969-6.954L12.307,18.36l7.035-7.035,13.03,13.03L31.183,25.55l-4.651,4.645Zm6.285-4.435,2.7,2.7-3.706,3.713-2.7-2.7Zm-.338,10.383a1.917,1.917,0,0,1,0-2.7L35.6,30.316a1.938,1.938,0,0,1,1.35-.56,1.917,1.917,0,0,1,1.35,3.274l-4.314,4.321A1.917,1.917,0,0,1,31.291,37.337ZM62.764,61.776a2.613,2.613,0,0,1-1.857.77,2.64,2.64,0,0,1-1.857-.77l-23.8-23.8,3.706-3.706,23.811,23.8a2.613,2.613,0,0,1,0,3.706Z" transform="translate(-0.317 0)" fill="#fff" stroke="#fff" stroke-width="1"/></g></svg>