<svg xmlns="http://www.w3.org/2000/svg" width="111" height="111" viewBox="0 0 111 111"><g transform="translate(-621 -3393.85)"><g transform="translate(621 3393.85)"><path d="M2129.135,857.912a3.646,3.646,0,0,1-2.591-1.073l-14.208-14.209-14.207,14.209a3.667,3.667,0,0,1-5.187-5.185l14.206-14.208-14.209-14.206a3.667,3.667,0,0,1,5.187-5.185l14.209,14.206,14.208-14.208a3.666,3.666,0,0,1,5.185,5.185l-14.209,14.209,14.209,14.208a3.666,3.666,0,0,1-2.594,6.258Z" transform="translate(-2056.836 -779.606)" fill="#fff"/><path d="M69.75,14.25a55.5,55.5,0,1,1-55.5,55.5A55.5,55.5,0,0,1,69.75,14.25Zm0,7.744A47.756,47.756,0,1,0,117.506,69.75,47.756,47.756,0,0,0,69.75,21.994Z" transform="translate(-14.25 -14.25)" fill="#fff"/></g></g></svg>