<svg xmlns="http://www.w3.org/2000/svg" width="72.475" height="72.475" viewBox="0 0 72.475 72.475"><g transform="translate(-903.911 -4174.938)"><g transform="translate(905.249 4176.275)"><path d="M2167.651,4l-5.534,11.29L2156.631,4" transform="translate(-2127.242 -3.996)" fill="none" stroke="#fff" stroke-linecap="round" stroke-linejoin="round" stroke-width="2"/><path d="M2167.651,285.643l-5.534-11.29-5.486,11.29" transform="translate(-2127.242 -215.844)" fill="none" stroke="#fff" stroke-linecap="round" stroke-linejoin="round" stroke-width="2"/><path d="M2020.828,150.819l11.29-5.534-11.29-5.485" transform="translate(-2020.828 -110.41)" fill="none" stroke="#fff" stroke-linecap="round" stroke-linejoin="round" stroke-width="2"/><path d="M2302.475,150.819l-11.29-5.534,11.29-5.485" transform="translate(-2232.676 -110.41)" fill="none" stroke="#fff" stroke-linecap="round" stroke-linejoin="round" stroke-width="2"/><path d="M2143.862,205.761c0-2.949-2.72-5.339-6.075-5.339h-3.86l-4.652,6.879-4.527-6.879h-3.985c-3.355,0-6.075,2.39-6.075,5.339" transform="translate(-2094.375 -157.913)" fill="none" stroke="#fff" stroke-linecap="round" stroke-linejoin="round" stroke-width="2"/><path d="M2165.2,115.153a6.4,6.4,0,1,1-6.4-6.4A6.4,6.4,0,0,1,2165.2,115.153Z" transform="translate(-2123.933 -86.085)" fill="none" stroke="#fff" stroke-linecap="round" stroke-linejoin="round" stroke-width="2"/><path d="M2081.18,77.924A23.71,23.71,0,0,1,2095,64.794" transform="translate(-2068.119 -51.637)" fill="none" stroke="#fff" stroke-linecap="round" stroke-linejoin="round" stroke-width="2"/><path d="M2050.559,50.632a31.1,31.1,0,0,1,17.217-16.559" transform="translate(-2044.125 -27.564)" fill="none" stroke="#fff" stroke-linecap="round" stroke-linejoin="round" stroke-width="2"/><path d="M2228.615,222.86a23.71,23.71,0,0,0,13.131-13.821" transform="translate(-2183.647 -164.665)" fill="none" stroke="#fff" stroke-linecap="round" stroke-linejoin="round" stroke-width="2"/><path d="M2243.492,241.182a31.1,31.1,0,0,0,16.559-17.217" transform="translate(-2195.305 -176.361)" fill="none" stroke="#fff" stroke-linecap="round" stroke-linejoin="round" stroke-width="2"/><path d="M2076.945,206.053a23.71,23.71,0,0,0,13.821,13.13" transform="translate(-2064.8 -162.325)" fill="none" stroke="#fff" stroke-linecap="round" stroke-linejoin="round" stroke-width="2"/><path d="M2046.324,220.93a31.1,31.1,0,0,0,17.217,16.559" transform="translate(-2040.806 -173.983)" fill="none" stroke="#fff" stroke-linecap="round" stroke-linejoin="round" stroke-width="2"/><path d="M2224.38,58.618a23.709,23.709,0,0,1,13.13,13.821" transform="translate(-2180.329 -46.797)" fill="none" stroke="#fff" stroke-linecap="round" stroke-linejoin="round" stroke-width="2"/><path d="M2239.257,28a31.1,31.1,0,0,1,16.559,17.217" transform="translate(-2191.987 -22.803)" fill="none" stroke="#fff" stroke-linecap="round" stroke-linejoin="round" stroke-width="2"/></g></g></svg>