<svg xmlns="http://www.w3.org/2000/svg" xmlns:xlink="http://www.w3.org/1999/xlink" width="129.385" height="70" viewBox="0 0 129.385 70"><defs><clipPath id="a"><rect width="129.385" height="70" fill="#fff"/></clipPath></defs><g transform="translate(-990.451 -3215.703)"><g transform="translate(990.451 3215.703)" clip-path="url(#a)"><path d="M71.535,27.968l-1.153,5.445h2.339a11.492,11.492,0,0,0,2.619-.185,3.025,3.025,0,0,0,2.184-2.522,3.65,3.65,0,0,0,.093-.769,1.682,1.682,0,0,0-1.247-1.723,8.87,8.87,0,0,0-2.5-.246Zm20.488,9.61h6.112l-.9-9.275h-.093ZM48.13,36.7,47.008,42H50.47q3.212,0,3.774-2.6a3.3,3.3,0,0,0,.094-.744q0-1.952-2.932-1.953Zm1.9-8.925L48.973,32.73h2.932a6.026,6.026,0,0,0,2.245-.279,2.946,2.946,0,0,0,1.622-2.17,1.985,1.985,0,0,0-.437-1.983,2.748,2.748,0,0,0-1.9-.527Zm-9.98,18.315L44.8,23.812H56.987q.582.047,1,.118a5.774,5.774,0,0,1,3.275,1.611,3.837,3.837,0,0,1,1.028,2.7,5.571,5.571,0,0,1-.124,1.146q-.842,3.874-5.895,5.082l-.03.062q4.4.806,4.4,4.152a6.6,6.6,0,0,1-1.185,3.828,7.774,7.774,0,0,1-3.166,2.649,15.72,15.72,0,0,1-6.284.93ZM.215,38.85H6.39a4.9,4.9,0,0,0-.123.971q0,2.325,3.134,2.324,3.285,0,3.839-2.412a2.693,2.693,0,0,0,.062-.559q0-1.088-1.536-1.5L6.636,36.32q-4.364-1.149-4.363-4.442a6.782,6.782,0,0,1,.153-1.383,7.561,7.561,0,0,1,3.225-4.62,13.016,13.016,0,0,1,7.588-2.03q7.805,0,7.8,4.825a9.525,9.525,0,0,1-.245,1.941H14.562a4.068,4.068,0,0,0,.153-1q0-1.941-2.4-1.941a4.011,4.011,0,0,0-2.274.632,2.449,2.449,0,0,0-1.137,1.6,2.242,2.242,0,0,0-.062.5q0,1.207,1.813,1.678l3.9,1.029a12.925,12.925,0,0,1,3.563,1.353A3.625,3.625,0,0,1,19.846,37.7a7.017,7.017,0,0,1-.185,1.53A7.6,7.6,0,0,1,15.7,44.439a14.875,14.875,0,0,1-7.342,1.648q-5.685,0-7.5-2.531A4.754,4.754,0,0,1,0,40.673,10.111,10.111,0,0,1,.215,38.85m20.274,7.238,4.771-22.2h16.9l-.9,4.255H30.531l-1,4.626h10.1L38.7,37.02H28.6l-1,4.75H38.577l-.936,4.317Zm87.222,0,4.771-22.2h16.9l-.9,4.255H117.753l-1,4.626h10.1l-.936,4.255h-10.1l-1,4.75H125.8l-.936,4.317ZM48.219,7.569H89.1L90.618,0H49.739Zm-2.5,11.746H86.6l1.521-7.569H47.242Zm-8.18,38.938H78.421l1.522-7.569H39.063ZM35.045,70H75.922l1.522-7.569H36.565ZM80.954,46.084l13.658-22.1h7.61l4.116,22.1H99.289L98.7,41.649H89.684l-2.5,4.439h-13a40.424,40.424,0,0,1,.343-5.014q.125-1.324.125-1.815a1.744,1.744,0,0,0-.514-1.43,3.4,3.4,0,0,0-2.012-.416H69.509l-1.871,8.675H61.369l4.772-22.21H76.556A31.819,31.819,0,0,1,80.112,24a4.452,4.452,0,0,1,3.025,1.477,4.041,4.041,0,0,1,.842,2.615,8.243,8.243,0,0,1-.187,1.692,5.826,5.826,0,0,1-2.963,4.122,10.909,10.909,0,0,1-3.68,1.137l-.03.123a4.812,4.812,0,0,1,3.3.954,3.415,3.415,0,0,1,.749,2.492q0,.584-.094,2a37.805,37.805,0,0,0-.125,5.473" transform="translate(0)" fill="#fff" fill-rule="evenodd"/></g></g></svg>