<svg xmlns="http://www.w3.org/2000/svg" width="101.139" height="101.14" viewBox="0 0 101.139 101.14"><g transform="translate(-906 -5521.075)"><g transform="translate(904 5519.076)"><path d="M94.711,12.114H89.654V3.686a1.684,1.684,0,0,0-2.62-1.4L82.911,5.031,78.79,2.283a1.686,1.686,0,0,0-2.621,1.4v8.428H10.428A8.438,8.438,0,0,0,2,20.542V74.483a8.438,8.438,0,0,0,8.428,8.428H41.984L39.455,93.025H37.4a8.438,8.438,0,0,0-8.428,8.428,1.685,1.685,0,0,0,1.686,1.686H74.483a1.685,1.685,0,0,0,1.686-1.686,8.438,8.438,0,0,0-8.428-8.428H65.684L63.155,82.912H94.711a8.438,8.438,0,0,0,8.428-8.428V20.542A8.438,8.438,0,0,0,94.711,12.114Zm5.057,8.428v47.2H54.255V15.485H94.711A5.063,5.063,0,0,1,99.768,20.542ZM79.54,6.836,81.976,8.46a1.684,1.684,0,0,0,1.869,0l2.437-1.623v5.278H79.54ZM10.428,15.485H50.884V67.741H5.371v-47.2A5.063,5.063,0,0,1,10.428,15.485ZM72.509,99.768H32.63A5.067,5.067,0,0,1,37.4,96.4H67.74A5.067,5.067,0,0,1,72.509,99.768Zm-10.3-6.743H42.929l2.528-10.114H59.681Zm32.5-13.485H10.428a5.063,5.063,0,0,1-5.057-5.057V71.112h94.4v3.371A5.063,5.063,0,0,1,94.711,79.54Z" transform="translate(0 0)" fill="#fff"/><rect width="36" height="3" transform="translate(10 20.14)" fill="#fff"/><rect width="36" height="3" transform="translate(59 20.14)" fill="#fff"/><rect width="36" height="3" transform="translate(10 28.14)" fill="#fff"/><rect width="36" height="3" transform="translate(59 28.14)" fill="#fff"/><rect width="36" height="3" transform="translate(10 36.14)" fill="#fff"/><rect width="36" height="3" transform="translate(59 36.14)" fill="#fff"/><rect width="36" height="3" transform="translate(10 44.14)" fill="#fff"/><rect width="36" height="3" transform="translate(59 44.14)" fill="#fff"/><rect width="36" height="3" transform="translate(10 52.14)" fill="#fff"/><rect width="36" height="3" transform="translate(59 52.14)" fill="#fff"/><rect width="36" height="3" transform="translate(10 60.14)" fill="#fff"/><rect width="36" height="3" transform="translate(59 60.14)" fill="#fff"/></g></g></svg>