<svg xmlns="http://www.w3.org/2000/svg" width="80.517" height="80.456" viewBox="0 0 80.517 80.456"><g transform="translate(-935.507 -4602.243)"><g transform="translate(936.919 4603.62)"><ellipse cx="25.089" cy="25.089" rx="25.089" ry="25.089" transform="matrix(1, -0.01, 0.01, 1, 17.225, 13.555)" fill="none" stroke="#fff" stroke-linecap="round" stroke-linejoin="round" stroke-width="2"/><ellipse cx="5.208" cy="5.208" rx="5.208" ry="5.208" transform="matrix(0.662, -0.75, 0.75, 0.662, 0, 34.101)" fill="none" stroke="#fff" stroke-linecap="round" stroke-linejoin="round" stroke-width="2"/><circle cx="5.208" cy="5.208" r="5.208" transform="matrix(0.526, -0.851, 0.851, 0.526, 52.092, 8.861)" fill="none" stroke="#fff" stroke-linecap="round" stroke-linejoin="round" stroke-width="2"/><circle cx="5.208" cy="5.208" r="5.208" transform="matrix(0.526, -0.851, 0.851, 0.526, 50.693, 72.226)" fill="none" stroke="#fff" stroke-linecap="round" stroke-linejoin="round" stroke-width="2"/><path d="M283.907,529.018a35.541,35.541,0,0,1-1.3,58.013" transform="translate(-220.174 -519.182)" fill="none" stroke="#fff" stroke-linecap="round" stroke-linejoin="round" stroke-width="2"/><path d="M32.988,522.43a35.575,35.575,0,0,1,46.145-23.621" transform="translate(-24.571 -493.885)" fill="none" stroke="#fff" stroke-linecap="round" stroke-linejoin="round" stroke-width="2"/><path d="M72.572,696.571a35.562,35.562,0,0,1-45.946-33.526" transform="translate(-19.586 -624.204)" fill="none" stroke="#fff" stroke-linecap="round" stroke-linejoin="round" stroke-width="2"/><path d="M173.019,604.3a6.788,6.788,0,1,1-6.788-6.788A6.788,6.788,0,0,1,173.019,604.3Z" transform="translate(-123.661 -572.85)" fill="none" stroke="#fff" stroke-linecap="round" stroke-linejoin="round" stroke-width="2"/><path d="M137.262,669.171a9.273,9.273,0,0,0,7.292,3.031c3.235,0,6.036-1.293,7.4-3.18h0a10.732,10.732,0,0,1,5.464,9.093H131.944a10.7,10.7,0,0,1,5.291-8.987Z" transform="translate(-102.112 -628.887)" fill="none" stroke="#fff" stroke-linecap="round" stroke-linejoin="round" stroke-width="2"/></g></g></svg>