<svg xmlns="http://www.w3.org/2000/svg" width="79.034" height="101.283" viewBox="0 0 79.034 101.283"><g transform="translate(-917.462 -6124.837)"><g transform="translate(917.462 6124.837)"><path d="M59.564,14.048V27.589a1.326,1.326,0,0,0,2.223.968l5.071-4.728,5.079,4.728a1.324,1.324,0,0,0,2.229-.968V14.159h6.516V89.13H22.868V14.155Zm1.3-2.666a1.649,1.649,0,0,0-.194.014l-39.127.118a1.325,1.325,0,0,0-1.328,1.319V90.457a1.328,1.328,0,0,0,1.328,1.327H82.012a1.326,1.326,0,0,0,1.325-1.327V12.833a1.322,1.322,0,0,0-1.325-1.325H68.271a1.326,1.326,0,0,0,0,2.652h3.243V24.545L67.76,21.058a1.329,1.329,0,0,0-1.8,0l-3.746,3.495V12.835a1.568,1.568,0,0,0-.006-.244.47.47,0,0,0-.022-.132.259.259,0,0,0-.022-.08.472.472,0,0,0-.025-.087A1.309,1.309,0,0,0,60.865,11.382Z" transform="translate(-12.259 -3.55)" fill="#fff"/><path d="M84.518,103.866H22.44a5.8,5.8,0,0,1-5.83-5.841V13.705a5.782,5.782,0,0,1,5.83-5.828H84.518a5.792,5.792,0,0,1,5.836,5.828v84.32A5.8,5.8,0,0,1,84.518,103.866Zm0,2.647A8.5,8.5,0,0,0,93,98.025V13.705A8.487,8.487,0,0,0,84.518,5.23H22.44a8.482,8.482,0,0,0-8.474,8.475v84.32a8.494,8.494,0,0,0,8.474,8.488Z" transform="translate(-13.966 -5.23)" fill="#fff"/><path d="M26.412,43.512a1.327,1.327,0,0,0,0,2.653H74.478a1.327,1.327,0,1,0,0-2.653Z" transform="translate(-10.928 5.226)" fill="#fff"/><path d="M26.412,52.038a1.326,1.326,0,0,0,0,2.652H74.478a1.326,1.326,0,1,0,0-2.652Z" transform="translate(-10.928 7.555)" fill="#fff"/><path d="M26.287,60.57a1.326,1.326,0,0,0,.126,2.647H56.491a1.326,1.326,0,1,0,0-2.647h-30.2Z" transform="translate(-10.929 9.885)" fill="#fff"/><path d="M42.538,34.986a1.326,1.326,0,1,0,0,2.652H70.075a1.326,1.326,0,1,0,0-2.652Z" transform="translate(-6.525 2.898)" fill="#fff"/><path d="M39.465,37.884a1.248,1.248,0,0,1-.589,1.668,1.212,1.212,0,0,1-.539.117,1.265,1.265,0,0,1-1.128-.708L36.079,36.62h-4.8l-1.128,2.341A1.251,1.251,0,1,1,27.9,37.883l1.464-3.047,3.182-6.618a1.227,1.227,0,0,1,2.223,0l4.647,9.664h.053ZM34.885,34.13l-1.194-2.492L32.5,34.13Z" transform="translate(-10.195 0.856)" fill="#fff"/></g></g></svg>