<svg xmlns="http://www.w3.org/2000/svg" width="111" height="111" viewBox="0 0 111 111"><g transform="translate(-621 -2757.98)"><g transform="translate(621 2757.98)"><path d="M69.75,14.25a55.5,55.5,0,1,1-55.5,55.5A55.5,55.5,0,0,1,69.75,14.25Zm0,7.744A47.756,47.756,0,1,0,117.506,69.75,47.756,47.756,0,0,0,69.75,21.994Z" transform="translate(-14.25 -14.25)"/><path d="M-1341.585,38.813a2.463,2.463,0,0,0-.373-1.13,3,3,0,0,0-1.818-1.366,3.528,3.528,0,0,0-.774-.088,2.8,2.8,0,0,0-1.512.42,2.908,2.908,0,0,0-1.362,1.883,20.739,20.739,0,0,1-1.276,4.777,20.81,20.81,0,0,1-2.454,4.214,20.635,20.635,0,0,1-3.2,3.207,20.967,20.967,0,0,1-4.257,2.483,20.466,20.466,0,0,1-4.63,1.252,20.581,20.581,0,0,1-2.4.141,20.657,20.657,0,0,1-2.41-.142,20.648,20.648,0,0,1-4.675-1.262,20.729,20.729,0,0,1-4.233-2.468,20.472,20.472,0,0,1-3.179-3.182,20.853,20.853,0,0,1-2.478-4.25,20.461,20.461,0,0,1-1.256-4.641,20.568,20.568,0,0,1,0-4.808,20.647,20.647,0,0,1,1.262-4.675,20.724,20.724,0,0,1,2.468-4.234,20.469,20.469,0,0,1,3.183-3.179,20.828,20.828,0,0,1,4.243-2.476,20.437,20.437,0,0,1,4.635-1.252,20.389,20.389,0,0,1,2.371-.138,20.778,20.778,0,0,1,2.418.142,20.846,20.846,0,0,1,4.727,1.279,20.588,20.588,0,0,1,4.209,2.455q.694.555,1.341,1.171h-1.366l-3.283,0h-1.506a3.037,3.037,0,0,0-2.177.955,2.8,2.8,0,0,0-.8,2.072,3.131,3.131,0,0,0,.875,2.043,2.93,2.93,0,0,0,2.105.892c1.35,0,2.746,0,4.119,0l3.281,0,3.283,0h1.506a2.892,2.892,0,0,0,.748-.1,2.645,2.645,0,0,0,.786-.337l.03-.02,0,0A3.02,3.02,0,0,0-1344,25.937c0-1.355,0-2.756,0-4.139q0-1.636,0-3.269t0-3.271V13.747a3.034,3.034,0,0,0-.863-2.086,2.876,2.876,0,0,0-2.042-.9l-.123,0a3.025,3.025,0,0,0-2.936,2.981c0,1.3,0,2.633,0,3.957a23.894,23.894,0,0,0-3.639-2.541,24.56,24.56,0,0,0-12.1-3.212h-.255a24.274,24.274,0,0,0-6.575.984,24.118,24.118,0,0,0-6.065,2.727,24.671,24.671,0,0,0-5.03,4.2,23.617,23.617,0,0,0-3.727,5.4,24.429,24.429,0,0,0-2.582,12.511,24.207,24.207,0,0,0,4.4,12.487,24.11,24.11,0,0,0,10,8.2,24.162,24.162,0,0,0,6.124,1.8,26.572,26.572,0,0,0,3.868.3,21.561,21.561,0,0,0,2.64-.159,23.98,23.98,0,0,0,6.382-1.634,25.809,25.809,0,0,0,3.344-1.651,26.051,26.051,0,0,0,3.209-2.3,24.257,24.257,0,0,0,7.663-11.8,22.4,22.4,0,0,0,.666-3.077A2.481,2.481,0,0,0-1341.585,38.813Z" transform="translate(1421.264 19.836)"/></g></g></svg>