<svg xmlns="http://www.w3.org/2000/svg" width="75.895" height="67.484" viewBox="0 0 75.895 67.484"><g transform="translate(1 1)"><path d="M833.026,1100.074a2.985,2.985,0,1,1,4.067-1.132A2.985,2.985,0,0,1,833.026,1100.074Z" transform="translate(-763.776 -1075.5)" fill="none" stroke="#fff" stroke-linecap="round" stroke-linejoin="round" stroke-width="2"/><path d="M583.315,1043.047a2.985,2.985,0,1,1,4.067-1.132A2.985,2.985,0,0,1,583.315,1043.047Z" transform="translate(-568.105 -1030.814)" fill="none" stroke="#fff" stroke-linecap="round" stroke-linejoin="round" stroke-width="2"/><path d="M662.576,1286.442a2.985,2.985,0,1,1,4.067-1.132A2.985,2.985,0,0,1,662.576,1286.442Z" transform="translate(-630.213 -1221.536)" fill="none" stroke="#fff" stroke-linecap="round" stroke-linejoin="round" stroke-width="2"/><path d="M561.919,1094.649a31,31,0,0,1,2.973-8.916" transform="translate(-552.529 -1068.639)" fill="none" stroke="#fff" stroke-linecap="round" stroke-linejoin="round" stroke-width="2"/><path d="M630.6,1011.075a31.248,31.248,0,0,1,42.288,10.246" transform="translate(-606.345 -1006.744)" fill="none" stroke="#fff" stroke-linecap="round" stroke-linejoin="round" stroke-width="2"/><path d="M739.372,1150.526a31.247,31.247,0,0,1-30.191,31.333" transform="translate(-667.922 -1119.41)" fill="none" stroke="#fff" stroke-linecap="round" stroke-linejoin="round" stroke-width="2"/><path d="M593.2,1057.026a24.744,24.744,0,1,1,24.143,30.177" transform="translate(-577.038 -1031.016)" fill="none" stroke="#fff" stroke-linecap="round" stroke-linejoin="round" stroke-width="2"/><path d="M601.245,1060.532s.5,6.214,4.551,7.588,5.613,2.621,4.987,5.421c-1.091,4.881,3.686,6.215,3.83,10.841s3.035,7.589,4.192,6.866-3.48-3.541.97-7.516,5-7.137,4.2-9.8c-.706-2.323-2.221-4.362-8.859-5.026-4.579-.458-10.623-7.624-3.429-6.306,6.637,1.217,7.08.664,9.658-1.574,4.472-3.882-3.042-11.194.428-11.772,2.768-.461.424,10.8,12.461-.576" transform="translate(-583.345 -1039.605)" fill="none" stroke="#fff" stroke-linecap="round" stroke-linejoin="round" stroke-width="2"/><path d="M741.679,1063.272c-.071-.058-2.731.159-2.225,3.122s-2.326,1.012-2.789,0-3.643,1.951-2.2,5.854-3.83,1.952-2.168,8.24,6.6.959,8.119,3.831c2.247,4.248-3.753,7.965.938,10.1,3.574,1.628,7.508-2.276,7.508-2.276" transform="translate(-685.78 -1051.033)" fill="none" stroke="#fff" stroke-linecap="round" stroke-linejoin="round" stroke-width="2"/><path d="M562.4,1175.256a7.249,7.249,0,1,1-7.249-7.249A7.249,7.249,0,0,1,562.4,1175.256Z" transform="translate(-541.544 -1133.108)" fill="none" stroke="#fff" stroke-linecap="round" stroke-linejoin="round" stroke-width="2"/><path d="M524.211,1244.542c1.5,1.928,4.425,3.237,7.788,3.237,3.455,0,6.447-1.381,7.907-3.4h0a11.461,11.461,0,0,1,5.835,9.712h-27.21a11.423,11.423,0,0,1,5.651-9.6Z" transform="translate(-518.531 -1192.955)" fill="none" stroke="#fff" stroke-linecap="round" stroke-linejoin="round" stroke-width="2"/></g></svg>