<svg xmlns="http://www.w3.org/2000/svg" width="111" height="111" viewBox="0 0 111 111"><g transform="translate(-621 -4024.908)"><g transform="translate(621 4024.908)"><path d="M69.75,14.25a55.5,55.5,0,1,1-55.5,55.5A55.5,55.5,0,0,1,69.75,14.25Zm0,7.744A47.756,47.756,0,1,0,117.506,69.75,47.756,47.756,0,0,0,69.75,21.994ZM95.688,54.179l.452.353a3.873,3.873,0,0,1,.622,5.017L96.409,60,68.329,90.978a3.873,3.873,0,0,1-4.995.636l-.452-.348L44.5,74.857a3.872,3.872,0,0,1,4.7-6.127l.455.35L65.171,82.935,90.671,54.8A3.873,3.873,0,0,1,95.688,54.179Z" transform="translate(-14.25 -14.25)" fill="#fff"/></g></g></svg>