<svg xmlns="http://www.w3.org/2000/svg" width="686.683" height="205.05" viewBox="0 0 686.683 205.05"><g transform="translate(-869.317 -3436)"><g transform="translate(-33.681 1558.3)"><path d="M918.282,75.378A41.133,41.133,0,1,1,877.15,34.246a41.132,41.132,0,0,1,41.132,41.132" transform="translate(257.362 1899.45)" fill="#fbad18" fill-rule="evenodd"/><path d="M745.339,202.674l52.132-55.245a87.073,87.073,0,0,1,127.839,1.276,70.8,70.8,0,0,0,101.482,3.531L1142.84,40.873a87.072,87.072,0,0,1,120.577,0l168.606,161.8Z" transform="translate(157.658 1880.075)" fill="#4dba6d"/></g><g transform="translate(-43.365 579.855)"><path d="M1375.64,93.973h-164.4l90.586-78.054h73.811Z" transform="translate(34.972 2967.027)" fill="#f0532d"/><rect width="40.724" height="78.054" transform="translate(1430.646 2982.946)"/><rect width="21.493" height="78.054" transform="translate(1477.34 2982.946)"/><rect width="6.243" height="78.054" transform="translate(1508.867 2982.946)"/><path d="M1143.54,127.18h.039c42.32-36.388,42.335-65.787,42.175-69.286,0-.119.018-.233.018-.352a42.192,42.192,0,0,0-42.193-42.192Z" transform="translate(287.106 2840.795)" fill="#005eb8"/><path d="M1219.567,127.18h-.039c-42.32-36.388-42.335-65.787-42.175-69.286,0-.119-.018-.233-.018-.352a42.192,42.192,0,0,1,42.193-42.192Z" transform="translate(295.544 2840.795)" fill="#005eb8"/></g></g></svg>