<svg xmlns="http://www.w3.org/2000/svg" width="106.195" height="43.461" viewBox="0 0 106.195 43.461"><g transform="translate(-810.758 -3228.973)"><g transform="translate(810.758 3228.973)"><path d="M633.568,513.027l-9.535,43.394,96.66.067,9.535-43.461Z" transform="translate(-624.032 -513.027)" fill="#fff"/><path d="M20.787-34.329h0a2.24,2.24,0,0,1-2.239-2.259,2.276,2.276,0,0,1,2.239-2.3,2.311,2.311,0,0,1,2.281,2.3A2.275,2.275,0,0,1,20.787-34.329Zm0-7.194h0a4.915,4.915,0,0,0-4.851,4.935,4.906,4.906,0,0,0,4.851,4.894,4.879,4.879,0,0,0,4.851-4.894A4.888,4.888,0,0,0,20.787-41.523Zm0,0" transform="translate(13.279 58.067)" fill="#008ece"/><path d="M10.781-39h0A7.607,7.607,0,0,1,3.234-46.61a7.616,7.616,0,0,1,7.546-7.654,7.625,7.625,0,0,1,7.588,7.654A7.616,7.616,0,0,1,10.781-39Zm0-18.487h0A10.833,10.833,0,0,0,0-46.61,10.9,10.9,0,0,0,10.781-35.694,10.9,10.9,0,0,0,21.6-46.61,10.841,10.841,0,0,0,10.781-57.485Zm0,0" transform="translate(23.285 68.09)" fill="#008ece"/><path d="M64.278-38.768H68.8l-2.239-6.483ZM58.6-32.243h0a.449.449,0,0,1-.373-.167.518.518,0,0,1-.166-.335A.535.535,0,0,1,58.1-33l5.681-15.726a1.186,1.186,0,0,1,.332-.46,1.013,1.013,0,0,1,.622-.209h3.607a1.049,1.049,0,0,1,.663.209,1.084,1.084,0,0,1,.29.46L74.976-33a.535.535,0,0,1,.041.251.381.381,0,0,1-.166.335.4.4,0,0,1-.373.167H71.493a.7.7,0,0,1-.539-.167,1.37,1.37,0,0,1-.249-.335l-.912-2.51h-6.51l-.912,2.51a3.862,3.862,0,0,1-.207.335.806.806,0,0,1-.58.167Zm0,0" transform="translate(-13.171 63.008)"/><path d="M109.385-32.243h0a.62.62,0,0,1-.456-.167.882.882,0,0,1-.166-.46V-48.764a.765.765,0,0,1,.166-.46.62.62,0,0,1,.456-.167h3.193a.564.564,0,0,1,.456.167.574.574,0,0,1,.166.46v12.84h7.339a.564.564,0,0,1,.456.167.574.574,0,0,1,.166.46v2.426a.632.632,0,0,1-.166.46.564.564,0,0,1-.456.167Zm0,0" transform="translate(-45.009 63.008)"/><path d="M148.388-32.243h0a.564.564,0,0,1-.456-.167.632.632,0,0,1-.166-.46V-48.764a.574.574,0,0,1,.166-.46.564.564,0,0,1,.456-.167h3.234a.564.564,0,0,1,.456.167.574.574,0,0,1,.166.46v15.894a.632.632,0,0,1-.166.46.564.564,0,0,1-.456.167Zm0,0" transform="translate(-69.499 63.008)"/></g></g></svg>