<svg xmlns="http://www.w3.org/2000/svg" width="113.1" height="110.001" viewBox="0 0 113.1 110.001"><g transform="translate(-448 -3421.999)"><path d="M42.409,535.558l-.684,3.225h1.386a6.816,6.816,0,0,0,1.553-.109,1.792,1.792,0,0,0,1.294-1.494,2.166,2.166,0,0,0,.055-.456,1,1,0,0,0-.739-1.02,5.263,5.263,0,0,0-1.479-.146Zm12.146,5.692h3.624l-.536-5.493h-.055Zm-26.021-.521-.666,3.139H29.92q1.9,0,2.237-1.542a1.953,1.953,0,0,0,.056-.441q0-1.156-1.738-1.156Zm1.128-5.286-.629,2.936h1.738a3.563,3.563,0,0,0,1.331-.165,1.744,1.744,0,0,0,.962-1.285,1.175,1.175,0,0,0-.259-1.175,1.631,1.631,0,0,0-1.128-.312ZM23.746,546.29,26.562,533.1h7.223q.345.028.592.07a3.421,3.421,0,0,1,1.941.954,2.271,2.271,0,0,1,.61,1.6,3.284,3.284,0,0,1-.074.679q-.5,2.294-3.494,3.01l-.018.037q2.607.477,2.607,2.459a3.906,3.906,0,0,1-.7,2.267,4.6,4.6,0,0,1-1.877,1.569,9.329,9.329,0,0,1-3.725.551ZM.127,542H3.788a2.9,2.9,0,0,0-.073.575q0,1.376,1.858,1.376,1.948,0,2.276-1.429a1.615,1.615,0,0,0,.036-.331q0-.645-.911-.889l-3.041-.8q-2.587-.68-2.586-2.631a4,4,0,0,1,.091-.819,4.478,4.478,0,0,1,1.912-2.736,7.722,7.722,0,0,1,4.5-1.2q4.627,0,4.626,2.858a5.636,5.636,0,0,1-.145,1.15h-3.7a2.393,2.393,0,0,0,.091-.592q0-1.15-1.42-1.15a2.379,2.379,0,0,0-1.348.375,1.45,1.45,0,0,0-.674.949,1.312,1.312,0,0,0-.037.3q0,.714,1.075.993l2.313.61a7.66,7.66,0,0,1,2.113.8,2.147,2.147,0,0,1,1.02,1.917,4.161,4.161,0,0,1-.109.906,4.5,4.5,0,0,1-2.349,3.084,8.831,8.831,0,0,1-4.353.976q-3.369,0-4.444-1.5A2.814,2.814,0,0,1,0,543.084,5.98,5.98,0,0,1,.127,542m12.019,4.287,2.829-13.151H25l-.536,2.52H18.1l-.592,2.74H23.5l-.555,2.52h-5.99l-.592,2.813H22.87l-.555,2.557Zm51.708,0,2.829-13.151H76.7l-.536,2.52h-6.36l-.592,2.74h5.99l-.555,2.52h-5.99l-.592,2.813h6.508l-.555,2.557Zm-15.863,0,8.1-13.088H60.6l2.44,13.09H58.862l-.351-2.629H53.168l-1.479,2.629H43.98a23.91,23.91,0,0,1,.2-2.97q.074-.784.074-1.075a1.032,1.032,0,0,0-.305-.847,2.021,2.021,0,0,0-1.193-.246H41.207L40.1,546.29H36.382l2.829-13.155h6.175a18.943,18.943,0,0,1,2.108.073,2.64,2.64,0,0,1,1.793.875,2.389,2.389,0,0,1,.5,1.549,4.891,4.891,0,0,1-.111,1,3.451,3.451,0,0,1-1.757,2.442,6.472,6.472,0,0,1-2.182.674l-.018.073a2.855,2.855,0,0,1,1.96.565,2.021,2.021,0,0,1,.444,1.476q0,.346-.055,1.184a22.322,22.322,0,0,0-.074,3.241" transform="translate(448 2985.71)" fill="#005eb8" fill-rule="evenodd"/><path d="M2.986,409.459H4.848l2.666,6.787H5.856L5.284,414.7H2.54l-.572,1.542H.32Zm1.9,4.062-.94-2.637H3.888l-.94,2.637Z" transform="translate(447.738 3086.896)"/><path d="M42.391,412.155a3.332,3.332,0,0,1,3.442-3.549,2.94,2.94,0,0,1,3.228,2.54H47.423A1.474,1.474,0,0,0,45.833,410c-1.222,0-1.823.834-1.823,2.152s.659,2.152,1.881,2.152c.911,0,1.522-.5,1.542-1.144h-1.9v-1.2h3.539c.2,2.3-1.028,3.742-3.258,3.742a3.261,3.261,0,0,1-3.423-3.549" transform="translate(413.307 3087.594)"/><path d="M84.943,409.46h5.071v1.26H86.484v1.464h3.093v1.222H86.484v1.58H90.12v1.26H84.943Z" transform="translate(378.482 3086.895)"/><path d="M119.592,409.46h1.571l2.928,4.518-.039-4.518h1.522v6.787H124l-2.928-4.431.039,4.431h-1.522Z" transform="translate(350.126 3086.895)"/><path d="M159.354,410.72h-2.23v-1.26h6.011v1.26H160.9v5.526h-1.551Z" transform="translate(319.409 3086.895)"/><path d="M194.816,409.46h5.071v1.26h-3.529v1.464h3.093v1.222h-3.093v1.58h3.636v1.26h-5.177Z" transform="translate(288.562 3086.895)"/><path d="M227.063,413.415h1.677a1.031,1.031,0,0,0,1.067,1.076c.621,0,1.057-.262,1.057-.776,0-1.319-3.539-.4-3.539-3.073,0-1.289,1.067-2.036,2.734-2.036,1.648,0,2.608.795,2.608,2.269h-1.629A1.01,1.01,0,0,0,230,409.808c-.6,0-1.047.281-1.047.766,0,1.328,3.6.388,3.6,3.074,0,1.3-1.067,2.055-2.783,2.055-1.7,0-2.705-.8-2.705-2.288" transform="translate(262.171 3087.594)"/><path d="M273.725,409.46h2.783a3.393,3.393,0,0,1,0,6.787h-2.783Zm2.511,5.565a1.906,1.906,0,0,0,2.065-2.162,1.926,1.926,0,0,0-2.065-2.181h-.97v4.344Z" transform="translate(223.982 3086.895)"/><path d="M313.34,409.46h5.071v1.26h-3.529v1.464h3.093v1.222h-3.093v1.58h3.636v1.26H313.34Z" transform="translate(191.562 3086.895)"/><path d="M3.523,459.429H6.732c1.513,0,2.375.8,2.375,1.988a1.608,1.608,0,0,1-1.629,1.609v.058a1.436,1.436,0,0,1,1.445,1.474,7.684,7.684,0,0,0,.262,1.658H7.6a5.247,5.247,0,0,1-.252-1.435c-.058-.679-.32-.882-.989-.882H5.065v2.317H3.523Zm2.821,3.3a1.08,1.08,0,0,0,1.2-1.1c0-.7-.582-.979-1.2-.979H5.065v2.075Z" transform="translate(445.117 3046)"/><path d="M38.708,462.124a3.51,3.51,0,1,1,3.51,3.549,3.369,3.369,0,0,1-3.51-3.549m3.51,2.152c1.231,0,1.861-.834,1.861-2.152s-.63-2.152-1.861-2.152-1.871.834-1.871,2.152.64,2.152,1.871,2.152" transform="translate(416.321 3046.699)"/><path d="M82.26,460.69H80.03v-1.26h6.011v1.26h-2.23v5.526H82.26Z" transform="translate(382.503 3046)"/><path d="M117.723,459.429h5.071v1.26h-3.529v1.464h3.093v1.222h-3.093v1.58H122.9v1.26h-5.177Z" transform="translate(351.655 3046)"/><rect width="1.551" height="6.787" transform="translate(475.67 3505.429)"/><path d="M167.961,459.429h3.209c1.513,0,2.375.8,2.375,1.988a1.608,1.608,0,0,1-1.629,1.609v.058a1.436,1.436,0,0,1,1.445,1.474,7.684,7.684,0,0,0,.262,1.658h-1.59a5.247,5.247,0,0,1-.252-1.435c-.058-.679-.32-.882-.989-.882H169.5v2.317h-1.542Zm2.821,3.3a1.08,1.08,0,0,0,1.2-1.1c0-.7-.582-.979-1.2-.979H169.5v2.075Z" transform="translate(310.54 3046)"/><path d="M203.145,462.124a3.51,3.51,0,1,1,3.51,3.549,3.37,3.37,0,0,1-3.51-3.549m3.51,2.152c1.231,0,1.862-.834,1.862-2.152s-.63-2.152-1.862-2.152-1.871.834-1.871,2.152.64,2.152,1.871,2.152" transform="translate(281.745 3046.699)"/><path d="M245.909,463.385h1.677a1.03,1.03,0,0,0,1.066,1.076c.621,0,1.057-.262,1.057-.776,0-1.319-3.539-.4-3.539-3.074,0-1.289,1.066-2.036,2.734-2.036,1.648,0,2.608.795,2.608,2.269h-1.629a1.01,1.01,0,0,0-1.037-1.066c-.6,0-1.047.281-1.047.766,0,1.328,3.6.388,3.6,3.073,0,1.3-1.066,2.055-2.783,2.055-1.7,0-2.705-.8-2.705-2.288" transform="translate(246.747 3046.698)"/><path d="M292.344,460.69h-2.23v-1.26h6.011v1.26H293.9v5.526h-1.551Z" transform="translate(210.569 3046)"/><path d="M327.487,463.734v-4.3h1.551v4.13c0,.911.388,1.512,1.348,1.512s1.357-.6,1.357-1.512v-4.13h1.542v4.3c0,1.9-1.3,2.637-2.9,2.637s-2.9-.737-2.9-2.637" transform="translate(179.983 3046)"/><path d="M366.14,459.429h3.209c1.512,0,2.375.8,2.375,1.988a1.608,1.608,0,0,1-1.629,1.609v.058a1.436,1.436,0,0,1,1.445,1.474,7.685,7.685,0,0,0,.262,1.658h-1.59a5.247,5.247,0,0,1-.252-1.435c-.058-.679-.32-.882-.989-.882h-1.289v2.317H366.14Zm2.821,3.3a1.08,1.08,0,0,0,1.2-1.1c0-.7-.582-.979-1.2-.979h-1.28v2.075Z" transform="translate(148.35 3046)"/><path d="M403.513,450.254h1.551v6.787h-1.551Zm.882-2.036h1.551l-1.028,1.357h-1.241Z" transform="translate(117.763 3055.175)"/><path d="M417.554,463.385h1.677a1.03,1.03,0,0,0,1.066,1.076c.621,0,1.057-.262,1.057-.776,0-1.319-3.539-.4-3.539-3.074,0-1.289,1.066-2.036,2.734-2.036,1.648,0,2.608.795,2.608,2.269h-1.629a1.01,1.01,0,0,0-1.037-1.066c-.6,0-1.047.281-1.047.766,0,1.328,3.6.388,3.6,3.073,0,1.3-1.066,2.055-2.783,2.055-1.7,0-2.705-.8-2.705-2.288" transform="translate(106.271 3046.698)"/><path d="M451.71,460.69h-2.23v-1.26h6.011v1.26h-2.23v5.526H451.71Z" transform="translate(80.144 3046)"/><rect width="1.551" height="6.787" transform="translate(536.468 3505.429)"/><path d="M501.374,462.124a3.332,3.332,0,0,1,3.442-3.549,3,3,0,0,1,3.228,2.773h-1.639a1.517,1.517,0,0,0-1.59-1.377c-1.222,0-1.823.834-1.823,2.152s.6,2.152,1.823,2.152a1.517,1.517,0,0,0,1.59-1.377h1.639a3,3,0,0,1-3.228,2.773,3.332,3.332,0,0,1-3.442-3.549" transform="translate(37.673 3046.699)"/><path d="M542.376,462.124a3.51,3.51,0,1,1,3.51,3.549,3.37,3.37,0,0,1-3.51-3.549m3.51,2.152c1.231,0,1.862-.834,1.862-2.152s-.63-2.152-1.862-2.152-1.871.834-1.871,2.152.64,2.152,1.871,2.152" transform="translate(4.117 3046.699)"/><path d="M585.141,463.385h1.677a1.031,1.031,0,0,0,1.067,1.076c.62,0,1.057-.262,1.057-.776,0-1.319-3.539-.4-3.539-3.074,0-1.289,1.067-2.036,2.734-2.036,1.648,0,2.608.795,2.608,2.269h-1.629a1.01,1.01,0,0,0-1.037-1.066c-.6,0-1.047.281-1.047.766,0,1.328,3.6.388,3.6,3.073,0,1.3-1.067,2.055-2.783,2.055-1.7,0-2.705-.8-2.705-2.288" transform="translate(-30.883 3046.698)"/><path d="M472.362,18.467V36.784c0,4.239,3.178,6.433,7.341,6.433a17.917,17.917,0,0,0,7.8-2.195l2.422,7.947a25.573,25.573,0,0,1-13.7,4.011c-8.781,0-15.592-4.768-15.592-14.153V0h11.732V18.467Z" transform="translate(71.018 3421.999)"/><path d="M0,54.162H26.32c-9.105-8.619-8.474-15.26-8.474-15.26a10.168,10.168,0,1,1,20.336,0c0,.029,0,.056,0,.085.036.794.032,7.12-8.478,15.175H56.018L28.009,3.3Z" transform="translate(448 3419.295)"/><path d="M296.833,91.325V48.912h11.732V58.25c3.406-6.282,10.6-9.537,18.618-9.537V58.78h-.272A18.641,18.641,0,0,0,308.565,77.5V91.325Z" transform="translate(205.07 3382.132)"/><path d="M490.107,58.574H460.66L472.4,48.462h17.711Z" transform="translate(70.993 3382.338)" fill="#4dba6d"/><path d="M110.705,203.686a12.409,12.409,0,0,0-24.819,0s-.87,9.074,12.4,20.482v.011l.006-.005.006.005v-.011c12.447-10.7,12.451-19.349,12.4-20.378,0-.035.005-.069.005-.1" transform="translate(377.72 3265.457)" fill="#fbad18"/></g></svg>