<svg xmlns="http://www.w3.org/2000/svg" width="1024.403" height="628.648" viewBox="0 0 1024.403 628.648"><g transform="translate(-448 -837.626)"><text transform="translate(672 858)" font-size="20" font-family="Nunito-Bold, Nunito" font-weight="700"><tspan x="0" y="20">Etapa 1 - On-line</tspan><tspan y="20" font-family="Nunito-Regular, Nunito" font-weight="400"></tspan><tspan font-family="Nunito-Regular, Nunito" font-weight="400"><tspan x="0" y="58">Nesta fase introdutória, nosso objetivo é alinhar todos os participantes com a visão </tspan><tspan x="0" y="86">estratégica do Sebrae e destacar a importância da UC. Além disso, forneceremos todas </tspan><tspan x="0" y="114">as instruções necessárias sobre o uso da plataforma UC para garantir que todos estejam </tspan><tspan x="0" y="142">preparados para seguir adiante.</tspan></tspan></text><path d="M34.293,0,0,157.274H159.112L193.4,0Z" transform="translate(448 854)" fill="#008ecf"/><path d="M34.293,0,0,157.274H159.112L193.4,0Z" transform="translate(1279 1072)" fill="#e2f6ff"/><g transform="translate(405.77 841)"><path d="M163.881,119.559a3.253,3.253,0,0,1-1.589-.414A50.048,50.048,0,0,1,136.68,75.513q0-.542.013-1.084c.173-8.132,3.211-14.986,8.787-19.82a28.93,28.93,0,0,1,36.807,0c5.575,4.833,8.613,11.688,8.787,19.82h0q.013.542.013,1.084a50.048,50.048,0,0,1-25.618,43.634A3.253,3.253,0,0,1,163.881,119.559Zm0-65.054a21.49,21.49,0,0,0-14.141,5.016c-4.148,3.6-6.412,8.8-6.544,15.045v.948a43.534,43.534,0,0,0,20.7,37.022,43.532,43.532,0,0,0,20.694-37.022c0-.317,0-.633-.011-.948h0c-.132-6.245-2.4-11.447-6.544-15.045A21.518,21.518,0,0,0,163.881,54.505Z" transform="translate(-25.413)" fill="#fff"/><path d="M205.941,134.422a15.641,15.641,0,1,1,15.641-15.641A15.641,15.641,0,0,1,205.941,134.422Zm0-24.775a9.136,9.136,0,1,0,9.136,9.135A9.136,9.136,0,0,0,205.941,109.648Z" transform="translate(-67.406 -43.183)" fill="#fff"/><path d="M138.468,320.986c-8.776,0-17.077-1.748-23.374-4.92-7.011-3.537-10.864-8.483-10.864-13.945,0-7.245,6.776-13.5,18.128-16.732a3.252,3.252,0,1,1,1.772,6.259c-8.143,2.317-13.4,6.429-13.4,10.473,0,5.855,11.389,12.36,27.732,12.36s27.739-6.505,27.739-12.36c0-4.044-5.261-8.156-13.4-10.474a3.253,3.253,0,0,1,1.78-6.258c11.352,3.231,18.128,9.487,18.128,16.732,0,5.462-3.858,10.409-10.864,13.945C155.542,319.238,147.241,320.986,138.468,320.986Z" transform="translate(0 -185.814)" fill="#fff"/></g><g transform="translate(1236.733 1067)"><path d="M163.881,119.559a3.253,3.253,0,0,1-1.589-.414A50.048,50.048,0,0,1,136.68,75.513q0-.542.013-1.084c.173-8.132,3.211-14.986,8.787-19.82a28.93,28.93,0,0,1,36.807,0c5.575,4.833,8.613,11.688,8.787,19.82h0q.013.542.013,1.084a50.048,50.048,0,0,1-25.618,43.634A3.253,3.253,0,0,1,163.881,119.559Zm0-65.054a21.49,21.49,0,0,0-14.141,5.016c-4.148,3.6-6.412,8.8-6.544,15.045v.948a43.534,43.534,0,0,0,20.7,37.022,43.532,43.532,0,0,0,20.694-37.022c0-.317,0-.633-.011-.948h0c-.132-6.245-2.4-11.447-6.544-15.045A21.518,21.518,0,0,0,163.881,54.505Z" transform="translate(-25.413)" fill="#58c9fd"/><path d="M205.941,134.422a15.641,15.641,0,1,1,15.641-15.641A15.641,15.641,0,0,1,205.941,134.422Zm0-24.775a9.136,9.136,0,1,0,9.136,9.135A9.136,9.136,0,0,0,205.941,109.648Z" transform="translate(-67.406 -43.183)" fill="#58c9fd"/></g><text transform="translate(448 1072)" font-size="20" font-family="Nunito-Bold, Nunito" font-weight="700"><tspan x="0" y="20">Etapa 2 - On-line</tspan><tspan y="20" font-family="Nunito-Regular, Nunito" font-weight="400"></tspan><tspan font-family="Nunito-Regular, Nunito" font-weight="400"><tspan x="0" y="58">A segunda etapa tem como objetivo fornecer uma compreensão sólida dos fundamentos, </tspan><tspan x="0" y="86">metodologias e ferramentas essenciais para uma atuação eficaz no programa. Vamos </tspan><tspan x="0" y="114">apresentar o programa ALI, explicando suas razões estratégicas, fundamentos e </tspan><tspan x="0" y="142">objetivos. Também discutiremos a importância da inovação no contexto do programa e </tspan><tspan x="0" y="170">ofereceremos uma visão geral do sistema e suas expectativas. </tspan></tspan></text><path d="M34.293,0,0,157.274H159.112L193.4,0Z" transform="translate(448 1309)" fill="#e2f6ff"/><g transform="translate(405.733 1304)"><path d="M163.881,119.559a3.253,3.253,0,0,1-1.589-.414A50.048,50.048,0,0,1,136.68,75.513q0-.542.013-1.084c.173-8.132,3.211-14.986,8.787-19.82a28.93,28.93,0,0,1,36.807,0c5.575,4.833,8.613,11.688,8.787,19.82h0q.013.542.013,1.084a50.048,50.048,0,0,1-25.618,43.634A3.253,3.253,0,0,1,163.881,119.559Zm0-65.054a21.49,21.49,0,0,0-14.141,5.016c-4.148,3.6-6.412,8.8-6.544,15.045v.948a43.534,43.534,0,0,0,20.7,37.022,43.532,43.532,0,0,0,20.694-37.022c0-.317,0-.633-.011-.948h0c-.132-6.245-2.4-11.447-6.544-15.045A21.518,21.518,0,0,0,163.881,54.505Z" transform="translate(-25.413)" fill="#58c9fd"/><path d="M205.941,134.422a15.641,15.641,0,1,1,15.641-15.641A15.641,15.641,0,0,1,205.941,134.422Zm0-24.775a9.136,9.136,0,1,0,9.136,9.135A9.136,9.136,0,0,0,205.941,109.648Z" transform="translate(-67.406 -43.183)" fill="#58c9fd"/></g><text transform="translate(672 1327)" font-size="20" font-family="Nunito-Bold, Nunito" font-weight="700"><tspan x="0" y="20">Etapa 3 - Presencial</tspan><tspan y="20" font-family="Nunito-Regular, Nunito" font-weight="400"></tspan><tspan font-family="Nunito-Regular, Nunito" font-weight="400"><tspan x="0" y="58">Durante essa fase, você terá a oportunidade aplicar os conhecimentos adquiridos de </tspan><tspan x="0" y="86">forma prática e presencial. Essa experiência imersiva foi projetada para preparar você </tspan><tspan x="0" y="114">para aplicar estratégias metodológicas com confiança e criatividade em situações reais.</tspan></tspan></text><path d="M2534.7,1011.274v29.785h830.5V1072" transform="translate(-1990)" fill="none" stroke="#58c9fd" stroke-width="2" stroke-dasharray="8"/><path d="M2534.7,1091v-39.1h830.5v-40.621" transform="translate(-1990 218)" fill="none" stroke="#58c9fd" stroke-width="2" stroke-dasharray="8"/><path d="M7.141,0,0,32.748H114.134L121.274,0Z" transform="translate(448 837.626)" fill="#e2f6ff"/><text transform="translate(461.257 857.518)" fill="#008ecf" font-size="14" font-family="Nunito-Bold, Nunito" font-weight="700"><tspan x="0" y="0">Estamos aqui!</tspan></text><g transform="translate(3 157.274)"><path d="M7.141,0,0,32.748H144.134L151.274,0Z" transform="translate(1317.726 1055.626)" fill="#58c9fd"/><text transform="translate(1329.726 1076.626)" fill="#fff" font-size="14" font-family="Nunito-Bold, Nunito" font-weight="700"><tspan x="0" y="0">Vamos chegar aqui!</tspan></text></g><path d="M7.141,0,0,32.748H144.134L151.274,0Z" transform="translate(448 1292.626)" fill="#58c9fd"/><text transform="translate(462 1313.626)" fill="#fff" font-size="14" font-family="Nunito-Bold, Nunito" font-weight="700"><tspan x="0" y="0">Encerraremos aqui!</tspan></text></g></svg>