<svg xmlns="http://www.w3.org/2000/svg" width="329" height="1030.641" viewBox="0 0 329 1030.641"><g transform="translate(-15 -947.359)"><path d="M27.814,0,0,127.561H129.051L156.864,0Z" transform="translate(101.568 947.359)" fill="#008ecf"/><g transform="translate(151.855 975.747)"><path d="M158.742,106.04a2.638,2.638,0,0,1-1.289-.336A40.593,40.593,0,0,1,136.68,70.315q0-.44.011-.879c.141-6.6,2.6-12.155,7.127-16.075a23.465,23.465,0,0,1,29.853,0c4.522,3.92,6.986,9.48,7.127,16.075h0q.011.44.011.879A40.593,40.593,0,0,1,160.03,105.7,2.638,2.638,0,0,1,158.742,106.04Zm0-52.763a17.43,17.43,0,0,0-11.469,4.068,16.058,16.058,0,0,0-5.308,12.2v.769a35.309,35.309,0,0,0,16.786,30.028,35.307,35.307,0,0,0,16.784-30.028c0-.257,0-.514-.009-.769h0a16.058,16.058,0,0,0-5.308-12.2A17.452,17.452,0,0,0,158.742,53.276Z" transform="translate(-130.973 -48)" fill="#fff"/><path d="M202.986,128.512a12.686,12.686,0,1,1,12.686-12.686A12.686,12.686,0,0,1,202.986,128.512Zm0-20.094a7.41,7.41,0,1,0,7.41,7.409A7.41,7.41,0,0,0,202.986,108.418Z" transform="translate(-175.162 -93.442)" fill="#fff"/><path d="M132,314.237c-7.118,0-13.85-1.418-18.958-3.991-5.686-2.869-8.811-6.88-8.811-11.311,0-5.876,5.5-10.95,14.7-13.571a2.638,2.638,0,1,1,1.437,5.076c-6.6,1.88-10.871,5.214-10.871,8.494,0,4.749,9.237,10.025,22.493,10.025s22.5-5.276,22.5-10.025c0-3.28-4.267-6.615-10.871-8.495a2.639,2.639,0,1,1,1.444-5.076c9.207,2.621,14.7,7.695,14.7,13.571,0,4.43-3.129,8.442-8.811,11.311C145.848,312.82,139.115,314.237,132,314.237Z" transform="translate(-104.23 -243.534)" fill="#fff"/></g><text transform="translate(16 1105)" font-size="14" font-family="Nunito-Bold, Nunito" font-weight="700"><tspan x="0" y="14">Etapa 1 - On-line</tspan><tspan font-family="Nunito-Regular, Nunito" font-weight="400"><tspan x="0" y="36">Nesta fase introdutória, nosso objetivo é alinhar </tspan><tspan x="0" y="58">todos os participantes com a visão estratégica do </tspan><tspan x="0" y="80">Sebrae e destacar a importância da UC. Além disso, </tspan><tspan x="0" y="102">forneceremos todas as instruções necessárias sobre </tspan><tspan x="0" y="124">o uso da plataforma UC para garantir que todos </tspan><tspan x="0" y="146">estejam preparados para seguir adiante.</tspan></tspan></text><path d="M27.814,0,0,127.561H129.051L156.864,0Z" transform="translate(101.568 1286)" fill="#e2f6ff"/><g transform="translate(157.532 1320.876)"><path d="M158.742,106.04a2.638,2.638,0,0,1-1.289-.336A40.593,40.593,0,0,1,136.68,70.315q0-.44.011-.879c.141-6.6,2.6-12.155,7.127-16.075a23.465,23.465,0,0,1,29.853,0c4.522,3.92,6.986,9.48,7.127,16.075h0q.011.44.011.879A40.593,40.593,0,0,1,160.03,105.7,2.638,2.638,0,0,1,158.742,106.04Zm0-52.763a17.43,17.43,0,0,0-11.469,4.068,16.058,16.058,0,0,0-5.308,12.2v.769a35.309,35.309,0,0,0,16.786,30.028,35.307,35.307,0,0,0,16.784-30.028c0-.257,0-.514-.009-.769h0a16.058,16.058,0,0,0-5.308-12.2A17.452,17.452,0,0,0,158.742,53.276Z" transform="translate(-136.68 -48)" fill="#58c9fd"/><path d="M202.986,128.512a12.686,12.686,0,1,1,12.686-12.686A12.686,12.686,0,0,1,202.986,128.512Zm0-20.094a7.41,7.41,0,1,0,7.41,7.409A7.41,7.41,0,0,0,202.986,108.418Z" transform="translate(-180.869 -93.442)" fill="#58c9fd"/></g><text transform="translate(16 1444)" font-size="14" font-family="Nunito-Bold, Nunito" font-weight="700"><tspan x="0" y="14">Etapa 2 - On-line</tspan><tspan font-family="Nunito-Regular, Nunito" font-weight="400"><tspan x="0" y="36">A segunda etapa tem como objetivo fornecer uma </tspan><tspan x="0" y="58">compreensão sólida dos fundamentos, </tspan><tspan x="0" y="80">metodologias e ferramentas essenciais para uma </tspan><tspan x="0" y="102">atuação eficaz no programa. Vamos apresentar o </tspan><tspan x="0" y="124">programa ALI, explicando suas razões estratégicas, </tspan><tspan x="0" y="146">fundamentos e objetivos. Também discutiremos a </tspan><tspan x="0" y="168">importância da inovação no contexto do programa e </tspan><tspan x="0" y="190">ofereceremos uma visão geral do sistema e suas </tspan><tspan x="0" y="212">expectativas. </tspan></tspan></text><path d="M27.814,0,0,127.561H129.051L156.864,0Z" transform="translate(101.568 1669)" fill="#e2f6ff"/><g transform="translate(157.532 1703.876)"><path d="M158.742,106.04a2.638,2.638,0,0,1-1.289-.336A40.593,40.593,0,0,1,136.68,70.315q0-.44.011-.879c.141-6.6,2.6-12.155,7.127-16.075a23.465,23.465,0,0,1,29.853,0c4.522,3.92,6.986,9.48,7.127,16.075h0q.011.44.011.879A40.593,40.593,0,0,1,160.03,105.7,2.638,2.638,0,0,1,158.742,106.04Zm0-52.763a17.43,17.43,0,0,0-11.469,4.068,16.058,16.058,0,0,0-5.308,12.2v.769a35.309,35.309,0,0,0,16.786,30.028,35.307,35.307,0,0,0,16.784-30.028c0-.257,0-.514-.009-.769h0a16.058,16.058,0,0,0-5.308-12.2A17.452,17.452,0,0,0,158.742,53.276Z" transform="translate(-136.68 -48)" fill="#58c9fd"/><path d="M202.986,128.512a12.686,12.686,0,1,1,12.686-12.686A12.686,12.686,0,0,1,202.986,128.512Zm0-20.094a7.41,7.41,0,1,0,7.41,7.409A7.41,7.41,0,0,0,202.986,108.418Z" transform="translate(-180.869 -93.442)" fill="#58c9fd"/></g><text transform="translate(16 1827)" font-size="14" font-family="Nunito-Bold, Nunito" font-weight="700"><tspan x="0" y="14">Etapa 3 - Presencial</tspan><tspan font-family="Nunito-Regular, Nunito" font-weight="400"><tspan x="0" y="36">Durante essa fase, você terá a oportunidade aplicar </tspan><tspan x="0" y="58">os conhecimentos adquiridos de forma prática e </tspan><tspan x="0" y="80">presencial. Essa experiência imersiva foi projetada </tspan><tspan x="0" y="102">para preparar você para aplicar estratégias </tspan><tspan x="0" y="124">metodológicas com confiança e criatividade em </tspan><tspan x="0" y="146">situações reais.</tspan></tspan></text><path d="M4238.432,1732.78H4308v103.741H4132.833" transform="translate(-3980)" fill="none" stroke="#58c9fd" stroke-width="1" stroke-dasharray="5"/><path d="M4308,1752.78v83.741H4117.833" transform="translate(-3980 -383)" fill="none" stroke="#58c9fd" stroke-width="1" stroke-dasharray="5"/><path d="M4238.432,1732.78H4308v103.741H4117.833" transform="translate(-3980 -721.641)" fill="none" stroke="#58c9fd" stroke-width="1" stroke-dasharray="5"/><path d="M4203.4,1806.56h-85.568v-73.78" transform="translate(-4101.834 -456.78)" fill="none" stroke="#58c9fd" stroke-width="1" stroke-dasharray="5"/><path d="M4203.4,1806.56h-85.568v-73.78" transform="translate(-4101.834 -73.78)" fill="none" stroke="#58c9fd" stroke-width="1" stroke-dasharray="5"/><path d="M7.141,0,0,32.748H114.134L121.274,0Z" transform="translate(16 994.765)" fill="#e2f6ff"/><text transform="translate(29.257 1014.657)" fill="#008ecf" font-size="14" font-family="Nunito-Bold, Nunito" font-weight="700"><tspan x="0" y="0">Estamos aqui!</tspan></text><g transform="translate(-1098.676 280.745)"><path d="M5.9,0,0,27.049H119.053L124.95,0Z" transform="translate(1317.726 1055.626)" fill="#58c9fd"/><text transform="translate(1327.638 1072.408)" fill="#fff" font-size="11" font-family="Nunito-Bold, Nunito" font-weight="700"><tspan x="0" y="0">Vamos chegar aqui!</tspan></text></g><path d="M5.9,0,0,27.049H119.053L124.951,0Z" transform="translate(16 1719.255)" fill="#58c9fd"/><text transform="translate(27.564 1736.037)" fill="#fff" font-size="11" font-family="Nunito-Bold, Nunito" font-weight="700"><tspan x="0" y="0">Encerraremos aqui!</tspan></text></g></svg>